<svg width="296" height="296" viewBox="0 0 296 296" fill="none" xmlns="http://www.w3.org/2000/svg">
<g filter="url(#filter0_di_208_554)">
<circle cx="148" cy="144" r="140" fill="#FF9900"/>
</g>
<g filter="url(#filter1_di_208_554)">
<circle cx="148" cy="144" r="129" fill="#FFB800"/>
</g>
<g filter="url(#filter2_di_208_554)">
<path fill-rule="evenodd" clip-rule="evenodd" d="M120.882 94.6703C111.494 94.6703 103.882 102.281 103.882 111.67V191.542C103.882 200.931 111.494 208.542 120.882 208.542H172.287C181.675 208.542 189.287 200.931 189.287 191.542L189.287 180.074H206C212.627 180.074 218 174.702 218 168.074V130.394C218 123.766 212.627 118.394 206 118.394H189.287L189.287 111.67C189.287 102.281 181.675 94.6703 172.287 94.6703H120.882ZM189.287 130.092V168.376H201.302C204.063 168.376 206.302 166.138 206.302 163.376V135.092C206.302 132.33 204.063 130.092 201.302 130.092H189.287Z" fill="#FFA800"/>
</g>
<g filter="url(#filter3_di_208_554)">
<path d="M107.441 108.67C107.441 100.938 113.709 94.6703 121.441 94.6703H171.728C179.46 94.6703 185.728 100.938 185.728 108.67V189.984C185.728 198.268 179.012 204.984 170.728 204.984H122.441C114.157 204.984 107.441 198.268 107.441 189.984V108.67Z" fill="#FFB800"/>
</g>
<g filter="url(#filter4_di_208_554)">
<path d="M107.441 122.766C107.441 121.661 108.336 120.766 109.441 120.766H183.728C184.833 120.766 185.728 121.661 185.728 122.766V189.984C185.728 198.268 179.012 204.984 170.728 204.984H122.441C114.157 204.984 107.441 198.268 107.441 189.984V122.766Z" fill="#FF9900"/>
</g>
<g filter="url(#filter5_di_208_554)">
<rect x="103.882" y="94.6703" width="85.4041" height="113.872" rx="17" fill="#FFA800" fill-opacity="0.27" shape-rendering="crispEdges"/>
</g>
<g filter="url(#filter6_di_208_554)">
<path fill-rule="evenodd" clip-rule="evenodd" d="M116.93 100.601C125.447 100.601 132.35 93.6973 132.35 85.1809C132.35 76.6646 125.447 69.7608 116.93 69.7608C110.067 69.7608 104.251 74.2444 102.252 80.4424C98.3013 82.3673 95.5792 86.4216 95.5792 91.1118C95.5792 97.6628 100.89 102.973 107.441 102.973C110.201 102.973 112.742 102.031 114.757 100.449C115.467 100.549 116.193 100.601 116.93 100.601Z" fill="#FFB800"/>
</g>
<g filter="url(#filter7_di_208_554)">
<path fill-rule="evenodd" clip-rule="evenodd" d="M131.164 99.415C131.164 107.276 124.792 113.649 116.93 113.649C115.359 113.649 113.847 113.394 112.434 112.924C111.587 114.055 110.521 115.012 109.299 115.733C109.631 116.555 109.813 117.453 109.813 118.394C109.813 122.324 106.627 125.511 102.696 125.511C98.7656 125.511 95.5792 122.324 95.5792 118.394C95.5792 116.947 96.0109 115.601 96.7525 114.478C94.576 112.523 93.2069 109.688 93.2069 106.532C93.2069 100.886 97.5895 96.2641 103.138 95.882C104.709 89.7298 110.289 85.181 116.93 85.181C124.792 85.181 131.164 91.5537 131.164 99.415Z" fill="#FFB800"/>
</g>
<g filter="url(#filter8_di_208_554)">
<path fill-rule="evenodd" clip-rule="evenodd" d="M143.447 91.2694C148.164 88.4834 151.329 83.3467 151.329 77.4709C151.329 68.627 144.16 61.4576 135.316 61.4576C126.472 61.4576 119.303 68.627 119.303 77.4709C119.303 79.2364 119.588 80.9351 120.116 82.5235C119.59 83.9017 119.303 85.3974 119.303 86.9602C119.303 93.8388 124.879 99.415 131.757 99.415C137.121 99.415 141.693 96.0243 143.447 91.2694Z" fill="#FFB800"/>
</g>
<g filter="url(#filter9_di_208_554)">
<path fill-rule="evenodd" clip-rule="evenodd" d="M165.747 95.0458C162.967 99.7886 157.817 102.973 151.922 102.973C150.29 102.973 148.715 102.729 147.232 102.276C145.773 106.81 141.521 110.09 136.502 110.09C130.279 110.09 125.233 105.045 125.233 98.8219C125.233 92.7935 129.967 87.8708 135.92 87.568C135.913 87.3664 135.909 87.1637 135.909 86.9602C135.909 78.1163 143.078 70.9469 151.922 70.9469C157.053 70.9469 161.62 73.3598 164.551 77.1127C166.061 76.2102 167.827 75.6916 169.715 75.6916C175.283 75.6916 179.797 80.2057 179.797 85.774C179.797 91.3424 175.283 95.8565 169.715 95.8565C168.306 95.8565 166.965 95.5676 165.747 95.0458Z" fill="#FFB800"/>
</g>
<g filter="url(#filter10_di_208_554)">
<path fill-rule="evenodd" clip-rule="evenodd" d="M168.884 107.226C166.21 111.106 161.736 113.649 156.667 113.649C148.478 113.649 141.84 107.011 141.84 98.8219C141.84 90.6331 148.478 83.9948 156.667 83.9948C161.11 83.9948 165.097 85.949 167.814 89.0449C170.083 86.6644 173.284 85.181 176.832 85.181C183.71 85.181 189.287 90.7571 189.287 97.6357C189.287 104.514 183.71 110.09 176.832 110.09C173.811 110.09 171.041 109.015 168.884 107.226Z" fill="#FFB800"/>
</g>
<g filter="url(#filter11_di_208_554)">
<rect x="114.558" y="117.208" width="15" height="78" rx="5" fill="#FFA800" fill-opacity="0.65"/>
<rect x="139.058" y="117.208" width="15" height="78" rx="5" fill="#FFA800" fill-opacity="0.65"/>
<rect x="163.558" y="117.208" width="15" height="78" rx="5" fill="#FFA800" fill-opacity="0.65"/>
</g>
<g filter="url(#filter12_i_208_554)">
<path d="M145.219 261.703L147.141 251.328C146.078 251.953 144.422 253.005 142.172 254.484C141.484 254.943 140.609 255.51 139.547 256.188C138.474 256.865 137.589 257.406 136.891 257.812C135.62 258.552 134.62 259.182 133.891 259.703C134.453 260.359 134.974 260.828 135.453 261.109C135.901 261.38 136.589 261.615 137.516 261.812C138.411 262.01 139.464 262.109 140.672 262.109C142.057 262.109 143.573 261.974 145.219 261.703ZM156.75 260L153.578 265.156C148.776 266.823 144.349 267.656 140.297 267.656C138.13 267.656 136.271 267.385 134.719 266.844C133.167 266.292 132.021 265.703 131.281 265.078C130.542 264.432 130.172 263.771 130.172 263.094C130.172 261.74 131.151 260.068 133.109 258.078C133.776 257.411 134.531 256.76 135.375 256.125C136.208 255.5 137.13 254.885 138.141 254.281C139.141 253.688 140.276 253.083 141.547 252.469C140.807 252.542 140.224 252.578 139.797 252.578C138.661 252.578 137.443 252.411 136.141 252.078C134.859 251.745 133.802 251.37 132.969 250.953C132.115 250.526 131.536 250.078 131.234 249.609C130.922 249.13 130.766 248.495 130.766 247.703C130.766 246.13 131.219 244.604 132.125 243.125C133.031 241.646 134.151 240.521 135.484 239.75C136.818 238.979 138.109 238.594 139.359 238.594C140.943 238.594 143.01 239.031 145.562 239.906L146.188 242.297L143.656 246.938C143.333 245.708 142.448 244.724 141 243.984C139.573 243.245 138.177 242.875 136.812 242.875C136.281 242.875 135.547 242.938 134.609 243.062C135.141 245.042 136.312 246.51 138.125 247.469C139.938 248.406 141.833 248.875 143.812 248.875C144.792 248.875 146.073 248.797 147.656 248.641C148.042 246.578 149.385 244.63 151.688 242.797C153.979 240.974 156.068 240.062 157.953 240.062C160.182 240.062 162.401 242.359 164.609 246.953C164.089 250.318 163.641 252.521 163.266 253.562C161.464 250.833 159.604 248.786 157.688 247.422C155.76 246.057 154.068 245.375 152.609 245.375C151.891 245.375 151.307 245.552 150.859 245.906C150.411 246.25 150.115 246.667 149.969 247.156C149.844 247.646 149.562 249.51 149.125 252.75L147.984 261.562C150.151 261.406 153.073 260.885 156.75 260Z" fill="#FF9900"/>
<path d="M128.502 255.385L129.564 251.701C128.672 251.543 127.707 251.405 126.671 251.286C126.531 251.959 126.464 252.28 126.469 252.25C126.315 253.121 126.43 253.819 126.814 254.341C127.206 254.876 127.769 255.224 128.502 255.385ZM133.122 256.358L129.142 258.686L125.057 257.649C123.743 257.301 122.858 256.801 122.402 256.149C121.929 255.474 121.752 254.797 121.871 254.12C121.924 253.823 122.033 253.445 122.198 252.988C122.408 252.454 122.672 251.649 122.989 250.573C124.522 250.092 125.664 249.855 126.414 249.86C127.175 249.867 127.893 249.93 128.57 250.05C128.827 250.095 129.14 250.177 129.511 250.295C128.726 248.866 127.857 248.068 126.903 247.899C125.774 247.7 124.684 247.947 123.631 248.639L123.508 248.618C125.098 245.598 127.278 244.332 130.048 244.821C131.484 245.074 132.49 245.457 133.066 245.972C133.641 246.486 134.032 247.152 134.236 247.971C134.455 248.771 134.382 250.202 134.019 252.264L133.478 254.882L133.122 256.358Z" fill="#FF9900"/>
<path d="M109.457 250.307L111.143 246.863C110.291 246.553 109.365 246.249 108.365 245.952C108.11 246.591 107.988 246.896 107.999 246.866C107.696 247.698 107.688 248.405 107.975 248.986C108.269 249.581 108.763 250.021 109.457 250.307ZM113.838 252.067L109.513 253.669L105.67 251.938C104.437 251.367 103.652 250.721 103.316 250.001C102.968 249.253 102.911 248.556 103.146 247.91C103.249 247.626 103.422 247.273 103.664 246.852C103.964 246.362 104.364 245.615 104.862 244.611C106.456 244.404 107.622 244.368 108.36 244.503C109.107 244.642 109.804 244.83 110.45 245.065C110.695 245.154 110.989 245.289 111.334 245.469C110.809 243.926 110.092 242.989 109.181 242.657C108.105 242.266 106.988 242.319 105.831 242.818L105.713 242.775C107.804 240.078 110.17 239.21 112.813 240.172C114.184 240.67 115.108 241.223 115.585 241.829C116.063 242.435 116.332 243.159 116.391 244.001C116.467 244.827 116.147 246.224 115.431 248.191L114.444 250.675L113.838 252.067Z" fill="#FF9900"/>
<path d="M96.1429 242.882L93.7982 246.724L89.9169 243.978L91.4915 240.719C90.9208 241.208 90.3831 241.691 89.8784 242.17C89.467 242.57 89.1047 242.854 88.7912 243.021C88.5011 243.191 88.1164 243.263 87.6371 243.239C87.1759 243.225 86.6972 243.075 86.2011 242.789C85.6418 242.466 85.0993 241.978 84.5738 241.326L86.0125 239.866C86.7745 239.067 87.6524 238.202 88.6463 237.272C89.3174 238.61 89.8111 239.442 90.1275 239.769C91.396 239.239 92.2386 238.769 92.6552 238.36C93.0698 237.517 93.3731 236.856 93.5652 236.378C92.92 235.62 92.2861 235.062 91.6637 234.702C92.6571 233.857 93.7936 232.961 95.073 232.016C96.9494 233.099 98.0345 233.876 98.3283 234.346C98.6453 234.818 98.8919 235.454 99.0679 236.253C99.2478 237.066 98.908 238.217 98.0486 239.706C97.4861 240.68 96.8509 241.739 96.1429 242.882Z" fill="#FF9900"/>
<path d="M60.022 231.151L61.5234 227.903C62.9511 226.558 65.1353 224.903 68.0762 222.938C67.5017 224.822 67.0521 226.613 66.7276 228.313C67.7719 230.277 69.0561 231.898 70.5802 233.177C73.0699 235.266 75.6289 236.163 78.2573 235.866C80.9005 235.568 83.0523 234.43 84.7128 232.451C85.6234 231.366 86.1116 230.184 86.1773 228.907C86.2442 227.644 85.7297 225.989 84.6337 223.94C83.5297 221.885 81.8734 219.646 79.665 217.221C78.9356 216.405 78.1661 215.597 77.3566 214.795C76.547 213.993 75.6403 213.137 74.6365 212.227C73.6326 211.317 72.6798 210.483 71.7781 209.726L76.2048 208.729C79.8056 210.758 82.9865 212.931 85.7475 215.247C89.3942 218.307 91.4735 221.242 91.9855 224.051C92.5201 226.866 91.8567 229.382 89.9953 231.601C87.933 234.058 85.198 235.884 81.7903 237.076C78.3985 238.283 74.9334 238.523 71.3948 237.797C67.8562 237.072 64.866 235.685 62.4243 233.636C61.6103 232.953 60.8096 232.125 60.022 231.151Z" fill="#FF9900"/>
<path d="M61.7216 217.436C62.7867 217.263 63.6982 216.858 64.4563 216.222C66.523 214.488 66.8966 212.373 65.5771 209.877C64.6118 210.347 63.7461 210.903 62.98 211.546C61.7512 212.577 61.1138 213.608 61.0679 214.639C61.0234 215.656 61.2413 216.588 61.7216 217.436ZM55.4859 213.918L57.1294 213.64C56.8108 212.888 56.7893 212.076 57.0651 211.206C57.3422 210.321 57.9196 209.51 58.7974 208.773C59.6432 208.064 60.5665 207.568 61.5671 207.285C62.5665 207.018 63.3872 206.935 64.029 207.035C64.6935 207.13 65.6489 207.45 66.8951 207.996C67.1155 208.096 67.4607 208.208 67.9306 208.33C68.3003 208.414 68.5993 208.503 68.8277 208.597C70.1254 210.16 70.875 211.945 71.0766 213.951C71.302 215.938 70.7684 217.473 69.4757 218.558C67.3691 220.326 64.1283 220.563 59.7533 219.271C58.7548 217.838 57.8672 216.659 57.0905 215.733C56.5147 215.047 55.9798 214.442 55.4859 213.918Z" fill="#FF9900"/>
<path d="M53.5384 203.95L51.636 204.561C50.2915 202.92 48.3873 201.247 45.9235 199.542L48.3051 198.167L49.3434 197.622C49.4787 197.544 49.5979 197.469 49.7009 197.397C49.9934 197.216 50.4013 196.975 50.9245 196.673C51.1591 196.537 51.3459 196.423 51.485 196.331L53.8119 194.861C54.3157 194.546 55.4313 193.812 57.1588 192.658C58.5565 194.329 59.7324 195.803 60.6864 197.081C59.4768 197.611 57.7489 198.524 55.5027 199.821L52.1375 201.836C52.5096 202.126 52.8206 202.488 53.0706 202.921C53.2581 203.246 53.4141 203.589 53.5384 203.95ZM41.2531 205.703C40.8625 205.026 40.7585 204.304 40.9411 203.537C41.129 202.779 41.5837 202.192 42.3054 201.775C42.982 201.385 43.7045 201.292 44.4729 201.498C45.2465 201.713 45.8286 202.159 46.2192 202.835C46.6098 203.512 46.7022 204.234 46.4963 205.003C46.2994 205.766 45.8582 206.346 45.1726 206.741C44.487 207.137 43.76 207.232 42.9916 207.026C42.2284 206.829 41.6489 206.388 41.2531 205.703Z" fill="#FF9900"/>
<path d="M40.0054 185.717L39.0666 184.463L40.99 183.763C40.7239 183.549 40.2619 183.163 39.604 182.605C39.3913 182.416 39.1705 182.236 38.9417 182.064L37.7387 181.089C37.5346 180.132 37.4383 179.38 37.4497 178.833C37.4682 178.305 37.6082 177.822 37.8697 177.383C38.125 176.957 38.4191 176.623 38.7518 176.38C39.049 176.161 39.5843 175.911 40.3575 175.629C41.2777 175.294 42.3962 174.987 43.7133 174.707C45.1122 174.409 46.2949 174.095 47.2613 173.765L49.9825 175.851L50.4111 176.16C51.2345 176.747 51.8349 177.255 52.2124 177.683C49.2943 178.102 47.0669 178.591 45.5301 179.151C43.6801 179.824 42.2031 180.822 41.099 182.144C41.1489 182.159 41.3892 182.271 41.82 182.48L42.2098 182.637L43.0309 183.02L51.4468 179.874C52.0764 181.451 52.9152 183.025 53.9632 184.595C53.4542 184.78 53.1147 184.898 52.9447 184.949C52.3307 185.15 51.965 185.272 51.8475 185.315L51.5098 185.438C51.1094 185.617 50.826 185.737 50.6596 185.797L47.1944 187.058C45.4423 187.696 43.8819 188.297 42.5134 188.862C42.4279 188.749 42.3304 188.618 42.2209 188.469C42.1016 188.324 41.9703 188.162 41.8269 187.981C41.68 187.791 41.5198 187.594 41.3462 187.391L40.0054 185.717Z" fill="#FF9900"/>
<path d="M30.2969 141.219L40.6719 143.141C40.0469 142.078 38.9948 140.422 37.5156 138.172C37.0573 137.484 36.4896 136.609 35.8125 135.547C35.1354 134.474 34.5938 133.589 34.1875 132.891C33.4479 131.62 32.8177 130.62 32.2969 129.891C31.6406 130.453 31.1719 130.974 30.8906 131.453C30.6198 131.901 30.3854 132.589 30.1875 133.516C29.9896 134.411 29.8906 135.464 29.8906 136.672C29.8906 138.057 30.026 139.573 30.2969 141.219ZM32 152.75L26.8438 149.578C25.1771 144.776 24.3438 140.349 24.3438 136.297C24.3438 134.13 24.6146 132.271 25.1563 130.719C25.7083 129.167 26.2969 128.021 26.9219 127.281C27.5677 126.542 28.2292 126.172 28.9063 126.172C30.2604 126.172 31.9323 127.151 33.9219 129.109C34.5885 129.776 35.2396 130.531 35.875 131.375C36.5 132.208 37.1146 133.13 37.7188 134.141C38.3125 135.141 38.9167 136.276 39.5313 137.547C39.4583 136.807 39.4219 136.224 39.4219 135.797C39.4219 134.661 39.5885 133.443 39.9219 132.141C40.2552 130.859 40.6302 129.802 41.0469 128.969C41.474 128.115 41.9219 127.536 42.3906 127.234C42.8698 126.922 43.5052 126.766 44.2969 126.766C45.8698 126.766 47.3958 127.219 48.875 128.125C50.3542 129.031 51.4792 130.151 52.25 131.484C53.0208 132.818 53.4063 134.109 53.4063 135.359C53.4063 136.943 52.9688 139.01 52.0938 141.562L49.7031 142.188L45.0625 139.656C46.2917 139.333 47.276 138.448 48.0156 137C48.7552 135.573 49.125 134.177 49.125 132.812C49.125 132.281 49.0625 131.547 48.9375 130.609C46.9583 131.141 45.4896 132.312 44.5313 134.125C43.5938 135.938 43.125 137.833 43.125 139.812C43.125 140.792 43.2031 142.073 43.3594 143.656C45.4219 144.042 47.3698 145.385 49.2031 147.688C51.026 149.979 51.9375 152.068 51.9375 153.953C51.9375 156.182 49.6406 158.401 45.0469 160.609C41.6823 160.089 39.4792 159.641 38.4375 159.266C41.1667 157.464 43.2135 155.604 44.5781 153.688C45.9427 151.76 46.625 150.068 46.625 148.609C46.625 147.891 46.4479 147.307 46.0938 146.859C45.75 146.411 45.3333 146.115 44.8438 145.969C44.3542 145.844 42.4896 145.562 39.25 145.125L30.4375 143.984C30.5938 146.151 31.1146 149.073 32 152.75Z" fill="#FF9900"/>
<path d="M36.6154 124.502L40.2994 125.564C40.4568 124.672 40.5951 123.707 40.7145 122.671C40.041 122.531 39.7197 122.464 39.7505 122.469C38.8785 122.315 38.1813 122.43 37.6588 122.814C37.1242 123.206 36.7764 123.769 36.6154 124.502ZM35.6421 129.122L33.3136 125.142L34.3512 121.057C34.6992 119.743 35.199 118.858 35.8506 118.402C36.5264 117.929 37.2028 117.752 37.8798 117.871C38.1773 117.924 38.5548 118.033 39.0122 118.198C39.5463 118.408 40.3513 118.672 41.4272 118.989C41.9077 120.522 42.1453 121.664 42.14 122.414C42.1329 123.175 42.0696 123.893 41.9502 124.57C41.905 124.827 41.8233 125.14 41.7051 125.511C43.1339 124.726 43.9324 123.857 44.1006 122.903C44.2996 121.774 44.0529 120.684 43.3607 119.631L43.3824 119.508C46.4021 121.098 47.6678 123.278 47.1794 126.048C46.9262 127.484 46.5425 128.49 46.0285 129.066C45.5145 129.641 44.848 130.032 44.0292 130.236C43.2291 130.455 41.7981 130.382 39.7361 130.019L37.1184 129.478L35.6421 129.122Z" fill="#FF9900"/>
<path d="M41.6934 105.457L45.137 107.142C45.4469 106.291 45.7507 105.365 46.0482 104.365C45.4093 104.11 45.1045 103.988 45.1339 103.999C44.3019 103.696 43.5953 103.688 43.014 103.975C42.4195 104.269 41.9792 104.763 41.6934 105.457ZM39.9326 109.837L38.3306 105.513L40.0618 101.67C40.6327 100.437 41.2786 99.6523 41.9995 99.3161C42.7472 98.9675 43.444 98.9108 44.0901 99.1459C44.374 99.2492 44.7268 99.422 45.1485 99.6642C45.6379 99.9642 46.3849 100.364 47.3895 100.862C47.5964 102.456 47.6321 103.622 47.4966 104.36C47.3576 105.107 47.1705 105.804 46.9353 106.45C46.8463 106.695 46.7114 106.989 46.5306 107.334C48.0739 106.809 49.0113 106.092 49.3426 105.181C49.7345 104.105 49.681 102.988 49.1821 101.831L49.2248 101.713C51.9226 103.804 52.7904 106.17 51.8285 108.813C51.3297 110.183 50.7772 111.108 50.171 111.585C49.5648 112.063 48.8408 112.332 47.9989 112.391C47.173 112.467 45.7763 112.147 43.8088 111.431L41.3248 110.444L39.9326 109.837Z" fill="#FF9900"/>
<path d="M49.1185 92.1429L45.276 89.7982L48.0221 85.9169L51.2807 87.4915C50.7923 86.9208 50.3089 86.3831 49.8305 85.8784C49.4305 85.467 49.1466 85.1047 48.9787 84.7912C48.8095 84.5011 48.7369 84.1164 48.761 83.6371C48.7747 83.1759 48.9247 82.6972 49.2112 82.2011C49.5341 81.6418 50.0217 81.0993 50.6739 80.5738L52.1346 82.0125C52.9336 82.7745 53.7979 83.6524 54.7276 84.6463C53.39 85.3174 52.5576 85.8111 52.2306 86.1275C52.7612 87.396 53.231 88.2386 53.64 88.6552C54.4831 89.0698 55.144 89.3731 55.6224 89.5652C56.3799 88.92 56.9383 88.2861 57.2976 87.6637C58.1434 88.6571 59.0389 89.7936 59.9841 91.073C58.9008 92.9494 58.124 94.0345 57.6536 94.3283C57.1819 94.6453 56.5464 94.8919 55.7472 95.0679C54.9337 95.2478 53.7827 94.908 52.2942 94.0486C51.3199 93.4861 50.2613 92.8509 49.1185 92.1429Z" fill="#FF9900"/>
<path d="M60.8491 56.022L64.097 57.5235C65.4419 58.9512 67.0969 61.1354 69.0622 64.0763C67.1783 63.5017 65.3866 63.0522 63.6872 62.7276C61.7231 63.772 60.1016 65.0562 58.8227 66.5803C56.7336 69.0699 55.8374 71.629 56.1339 74.2574C56.4316 76.9005 57.57 79.0524 59.549 80.7129C60.6342 81.6235 61.8156 82.1117 63.093 82.1773C64.3558 82.2443 66.0114 81.7298 68.0597 80.6337C70.1147 79.5297 72.3544 77.8735 74.7786 75.6651C75.5946 74.9356 76.4035 74.1661 77.2051 73.3566C78.0068 72.5471 78.8627 71.6404 79.7731 70.6365C80.6834 69.6327 81.5169 68.6799 82.2735 67.7782L83.2708 72.2049C81.242 75.8057 79.0692 78.9866 76.7525 81.7476C73.6926 85.3942 70.758 87.4736 67.9488 87.9855C65.1341 88.5201 62.6176 87.8567 60.3993 85.9953C57.9416 83.933 56.1163 81.1981 54.9235 77.7903C53.7173 74.3986 53.477 70.9334 54.2026 67.3948C54.9281 63.8563 56.3153 60.8661 58.3642 58.4243C59.0472 57.6104 59.8755 56.8096 60.8491 56.022Z" fill="#FF9900"/>
<path d="M74.5642 57.7216C74.7372 58.7867 75.1417 59.6982 75.7778 60.4563C77.512 62.523 79.6272 62.8966 82.1235 61.5771C81.6534 60.6118 81.0969 59.7461 80.4542 58.98C79.423 57.7512 78.3919 57.1138 77.3608 57.0679C76.3443 57.0234 75.4121 57.2413 74.5642 57.7216ZM78.082 51.4859L78.3597 53.1294C79.1122 52.8108 79.9237 52.7893 80.7942 53.0651C81.6794 53.3422 82.4903 53.9196 83.2268 54.7974C83.9365 55.6432 84.4325 56.5665 84.7146 57.5671C84.9821 58.5665 85.0656 59.3872 84.965 60.029C84.8699 60.6935 84.5497 61.6489 84.0045 62.8951C83.9039 63.1155 83.7923 63.4607 83.6699 63.9306C83.5858 64.3003 83.4968 64.5993 83.4029 64.8277C81.8401 66.1254 80.0555 66.875 78.0489 67.0766C76.0624 67.302 74.5268 66.7684 73.4421 65.4757C71.6745 63.3691 71.4367 60.1283 72.7289 55.7533C74.162 54.7548 75.3413 53.8672 76.2669 53.0905C76.9532 52.5147 77.5582 51.9798 78.082 51.4859Z" fill="#FF9900"/>
<path d="M88.0499 49.5383L87.4387 47.6359C89.0801 46.2913 90.7532 44.3872 92.4581 41.9234L93.8331 44.305L94.3784 45.3433C94.4565 45.4786 94.5314 45.5978 94.6029 45.7008C94.7838 45.9933 95.0253 46.4012 95.3274 46.9244C95.4628 47.1589 95.5767 47.3458 95.669 47.4849L97.1387 49.8118C97.4537 50.3156 98.188 51.4312 99.3417 53.1587C97.6709 54.5564 96.1967 55.7322 94.9193 56.6863C94.3893 55.4767 93.4759 53.7488 92.179 51.5025L90.1639 48.1374C89.8736 48.5095 89.5119 48.8205 89.0789 49.0705C88.7542 49.258 88.4112 49.4139 88.0499 49.5383ZM86.2975 37.253C86.9741 36.8623 87.6959 36.7584 88.4629 36.941C89.2208 37.1288 89.8082 37.5836 90.2248 38.3053C90.6154 38.9819 90.7078 39.7044 90.5019 40.4728C90.287 41.2464 89.8413 41.8285 89.1647 42.2191C88.4881 42.6097 87.7656 42.7021 86.9972 42.4962C86.234 42.2993 85.6545 41.8581 85.2587 41.1725C84.8629 40.4869 84.7679 39.7599 84.9738 38.9915C85.1707 38.2283 85.6119 37.6488 86.2975 37.253Z" fill="#FF9900"/>
<path d="M106.283 36.0054L107.537 35.0666L108.237 36.99C108.451 36.7239 108.837 36.2619 109.395 35.604C109.584 35.3913 109.764 35.1705 109.936 34.9417L110.911 33.7387C111.868 33.5346 112.62 33.4383 113.167 33.4497C113.695 33.4682 114.178 33.6082 114.617 33.8697C115.043 34.125 115.377 34.4191 115.62 34.7518C115.839 35.049 116.089 35.5843 116.371 36.3575C116.706 37.2777 117.013 38.3962 117.293 39.7133C117.591 41.1122 117.905 42.2949 118.235 43.2613L116.149 45.9825L115.84 46.4111C115.253 47.2345 114.745 47.8349 114.317 48.2124C113.898 45.2943 113.409 43.0669 112.849 41.5301C112.176 39.6801 111.178 38.2031 109.856 37.099C109.841 37.1489 109.729 37.3892 109.52 37.82L109.363 38.2098L108.98 39.0309L112.126 47.4468C110.549 48.0764 108.975 48.9152 107.405 49.9632C107.22 49.4542 107.102 49.1147 107.051 48.9447C106.85 48.3307 106.728 47.965 106.685 47.8475L106.562 47.5098C106.383 47.1094 106.263 46.826 106.203 46.6596L104.942 43.1944C104.304 41.4423 103.703 39.8819 103.138 38.5134C103.251 38.4279 103.382 38.3304 103.531 38.2209C103.676 38.1016 103.838 37.9703 104.019 37.8269C104.209 37.68 104.406 37.5198 104.609 37.3462L106.283 36.0054Z" fill="#FF9900"/>
<path d="M150.781 26.2969L148.859 36.6719C149.922 36.0469 151.578 34.9948 153.828 33.5156C154.516 33.0573 155.391 32.4896 156.453 31.8125C157.526 31.1354 158.411 30.5938 159.109 30.1875C160.38 29.4479 161.38 28.8177 162.109 28.2969C161.547 27.6406 161.026 27.1719 160.547 26.8906C160.099 26.6198 159.411 26.3854 158.484 26.1875C157.589 25.9896 156.536 25.8906 155.328 25.8906C153.943 25.8906 152.427 26.026 150.781 26.2969ZM139.25 28L142.422 22.8438C147.224 21.1771 151.651 20.3438 155.703 20.3438C157.87 20.3438 159.729 20.6146 161.281 21.1563C162.833 21.7083 163.979 22.2969 164.719 22.9219C165.458 23.5677 165.828 24.2292 165.828 24.9063C165.828 26.2604 164.849 27.9323 162.891 29.9219C162.224 30.5885 161.469 31.2396 160.625 31.875C159.792 32.5 158.87 33.1146 157.859 33.7188C156.859 34.3125 155.724 34.9167 154.453 35.5313C155.193 35.4583 155.776 35.4219 156.203 35.4219C157.339 35.4219 158.557 35.5885 159.859 35.9219C161.141 36.2552 162.198 36.6302 163.031 37.0469C163.885 37.474 164.464 37.9219 164.766 38.3906C165.078 38.8698 165.234 39.5052 165.234 40.2969C165.234 41.8698 164.781 43.3958 163.875 44.875C162.969 46.3542 161.849 47.4792 160.516 48.25C159.182 49.0208 157.891 49.4063 156.641 49.4063C155.057 49.4063 152.99 48.9688 150.438 48.0938L149.812 45.7031L152.344 41.0625C152.667 42.2917 153.552 43.276 155 44.0156C156.427 44.7552 157.823 45.125 159.188 45.125C159.719 45.125 160.453 45.0625 161.391 44.9375C160.859 42.9583 159.688 41.4896 157.875 40.5313C156.062 39.5938 154.167 39.125 152.188 39.125C151.208 39.125 149.927 39.2031 148.344 39.3594C147.958 41.4219 146.615 43.3698 144.312 45.2031C142.021 47.026 139.932 47.9375 138.047 47.9375C135.818 47.9375 133.599 45.6406 131.391 41.0469C131.911 37.6823 132.359 35.4792 132.734 34.4375C134.536 37.1667 136.396 39.2135 138.312 40.5781C140.24 41.9427 141.932 42.625 143.391 42.625C144.109 42.625 144.693 42.4479 145.141 42.0938C145.589 41.75 145.885 41.3333 146.031 40.8438C146.156 40.3542 146.438 38.4896 146.875 35.25L148.016 26.4375C145.849 26.5938 142.927 27.1146 139.25 28Z" fill="#FF9900"/>
<path d="M167.498 32.6154L166.436 36.2994C167.328 36.4568 168.293 36.5951 169.329 36.7145C169.469 36.041 169.536 35.7197 169.531 35.7505C169.685 34.8785 169.57 34.1813 169.186 33.6588C168.794 33.1242 168.231 32.7764 167.498 32.6154ZM162.878 31.6421L166.858 29.3136L170.943 30.3512C172.257 30.6992 173.142 31.199 173.598 31.8506C174.071 32.5264 174.248 33.2028 174.129 33.8798C174.076 34.1773 173.967 34.5548 173.802 35.0122C173.592 35.5463 173.328 36.3513 173.011 37.4272C171.478 37.9077 170.336 38.1453 169.586 38.14C168.825 38.1329 168.107 38.0696 167.43 37.9502C167.173 37.905 166.86 37.8233 166.489 37.7051C167.274 39.1339 168.143 39.9324 169.097 40.1006C170.226 40.2996 171.316 40.0529 172.369 39.3607L172.492 39.3824C170.902 42.4021 168.722 43.6678 165.952 43.1794C164.516 42.9262 163.51 42.5425 162.934 42.0285C162.359 41.5145 161.968 40.848 161.764 40.0292C161.545 39.2291 161.618 37.7981 161.981 35.7361L162.522 33.1184L162.878 31.6421Z" fill="#FF9900"/>
<path d="M186.543 37.6933L184.857 41.1369C185.709 41.4469 186.635 41.7506 187.635 42.0482C187.89 41.4093 188.012 41.1045 188.001 41.1338C188.304 40.3018 188.312 39.5952 188.025 39.014C187.731 38.4194 187.237 37.9792 186.543 37.6933ZM182.162 35.9326L186.487 34.3306L190.33 36.0618C191.563 36.6326 192.348 37.2785 192.684 37.9995C193.032 38.7471 193.089 39.444 192.854 40.09C192.751 40.3739 192.578 40.7267 192.336 41.1485C192.036 41.6379 191.636 42.3849 191.138 43.3895C189.544 43.5964 188.378 43.6321 187.64 43.4966C186.893 43.3575 186.196 43.1704 185.55 42.9353C185.305 42.8462 185.011 42.7113 184.666 42.5305C185.191 44.0739 185.908 45.0112 186.819 45.3425C187.895 45.7344 189.012 45.6809 190.169 45.182L190.287 45.2248C188.196 47.9225 185.83 48.7904 183.187 47.8285C181.816 47.3297 180.892 46.7772 180.415 46.171C179.937 45.5648 179.668 44.8407 179.609 43.9988C179.533 43.1729 179.853 41.7762 180.569 39.8087L181.556 37.3247L182.162 35.9326Z" fill="#FF9900"/>
<path d="M199.857 45.1183L202.202 41.2759L206.083 44.022L204.508 47.2806C205.079 46.7922 205.617 46.3088 206.122 45.8304C206.533 45.4304 206.895 45.1464 207.209 44.9786C207.499 44.8093 207.884 44.7367 208.363 44.7608C208.824 44.7745 209.303 44.9246 209.799 45.2111C210.358 45.534 210.901 46.0216 211.426 46.6738L209.987 48.1345C209.225 48.9335 208.348 49.7978 207.354 50.7275C206.683 49.3899 206.189 48.5575 205.873 48.2305C204.604 48.7611 203.761 49.2308 203.345 49.6399C202.93 50.483 202.627 51.1438 202.435 51.6223C203.08 52.3797 203.714 52.9381 204.336 53.2975C203.343 54.1433 202.206 55.0388 200.927 55.984C199.051 54.9007 197.965 54.1238 197.672 53.6535C197.355 53.1818 197.108 52.5463 196.932 51.7471C196.752 50.9336 197.092 49.7826 197.951 48.2941C198.514 47.3198 199.149 46.2612 199.857 45.1183Z" fill="#FF9900"/>
<path d="M235.978 56.8491L234.477 60.097C233.049 61.4419 230.865 63.0969 227.924 65.0622C228.498 63.1783 228.948 61.3866 229.272 59.6872C228.228 57.7231 226.944 56.1016 225.42 54.8227C222.93 52.7336 220.371 51.8374 217.743 52.1339C215.1 52.4316 212.948 53.57 211.287 55.549C210.377 56.6342 209.888 57.8156 209.823 59.093C209.756 60.3558 210.27 62.0114 211.366 64.0597C212.47 66.1147 214.127 68.3544 216.335 70.7786C217.064 71.5946 217.834 72.4035 218.643 73.2051C219.453 74.0068 220.36 74.8627 221.364 75.7731C222.367 76.6834 223.32 77.5169 224.222 78.2735L219.795 79.2708C216.194 77.242 213.013 75.0692 210.253 72.7525C206.606 69.6926 204.526 66.758 204.015 63.9488C203.48 61.1341 204.143 58.6176 206.005 56.3993C208.067 53.9416 210.802 52.1163 214.21 50.9235C217.601 49.7173 221.067 49.477 224.605 50.2026C228.144 50.9281 231.134 52.3153 233.576 54.3642C234.39 55.0472 235.19 55.8755 235.978 56.8491Z" fill="#FF9900"/>
<path d="M234.278 70.5641C233.213 70.7371 232.302 71.1416 231.544 71.7777C229.477 73.5119 229.103 75.6271 230.423 78.1234C231.388 77.6533 232.254 77.0969 233.02 76.4541C234.249 75.423 234.886 74.3918 234.932 73.3607C234.977 72.3442 234.759 71.412 234.278 70.5641ZM240.514 74.082L238.871 74.3596C239.189 75.1121 239.211 75.9236 238.935 76.7941C238.658 77.6793 238.08 78.4902 237.203 79.2267C236.357 79.9365 235.434 80.4324 234.433 80.7146C233.433 80.982 232.613 81.0655 231.971 80.965C231.306 80.8699 230.351 80.5497 229.105 80.0044C228.884 79.9038 228.539 79.7923 228.069 79.6698C227.7 79.5857 227.401 79.4967 227.172 79.4028C225.875 77.8401 225.125 76.0554 224.923 74.0489C224.698 72.0624 225.232 70.5268 226.524 69.4421C228.631 67.6744 231.872 67.4367 236.247 68.7289C237.245 70.1619 238.133 71.3412 238.91 72.2669C239.485 72.9531 240.02 73.5582 240.514 74.082Z" fill="#FF9900"/>
<path d="M242.462 84.0499L244.364 83.4387C245.709 85.08 247.613 86.7532 250.076 88.458L247.695 89.833L246.657 90.3784C246.521 90.4565 246.402 90.5313 246.299 90.6028C246.007 90.7837 245.599 91.0252 245.075 91.3273C244.841 91.4627 244.654 91.5766 244.515 91.669L242.188 93.1387C241.684 93.4536 240.569 94.1879 238.841 95.3416C237.443 93.6708 236.268 92.1967 235.314 90.9192C236.523 90.3892 238.251 89.4758 240.497 88.1789L243.863 86.1639C243.49 85.8735 243.179 85.5119 242.929 85.0788C242.742 84.7541 242.586 84.4111 242.462 84.0499ZM254.747 82.2974C255.138 82.974 255.242 83.6958 255.059 84.4628C254.871 85.2208 254.416 85.8081 253.695 86.2248C253.018 86.6154 252.296 86.7078 251.527 86.5019C250.754 86.287 250.171 85.8412 249.781 85.1646C249.39 84.488 249.298 83.7656 249.504 82.9972C249.701 82.234 250.142 81.6545 250.827 81.2586C251.513 80.8628 252.24 80.7678 253.008 80.9737C253.772 81.1706 254.351 81.6118 254.747 82.2974Z" fill="#FF9900"/>
<path d="M255.995 102.283L256.933 103.537L255.01 104.237C255.276 104.451 255.738 104.837 256.396 105.395C256.609 105.584 256.829 105.764 257.058 105.936L258.261 106.911C258.465 107.868 258.562 108.62 258.55 109.167C258.532 109.695 258.392 110.178 258.13 110.617C257.875 111.043 257.581 111.377 257.248 111.62C256.951 111.839 256.416 112.089 255.642 112.371C254.722 112.706 253.604 113.013 252.287 113.293C250.888 113.591 249.705 113.905 248.739 114.235L246.018 112.149L245.589 111.84C244.766 111.253 244.165 110.745 243.788 110.317C246.706 109.898 248.933 109.409 250.47 108.849C252.32 108.176 253.797 107.178 254.901 105.856C254.851 105.841 254.611 105.729 254.18 105.52L253.79 105.363L252.969 104.98L244.553 108.126C243.924 106.549 243.085 104.975 242.037 103.405C242.546 103.22 242.885 103.102 243.055 103.051C243.669 102.85 244.035 102.728 244.152 102.685L244.49 102.562C244.891 102.383 245.174 102.263 245.34 102.203L248.806 100.942C250.558 100.304 252.118 99.7028 253.487 99.1382C253.572 99.2512 253.67 99.382 253.779 99.5306C253.898 99.6756 254.03 99.8384 254.173 100.019C254.32 100.209 254.48 100.406 254.654 100.609L255.995 102.283Z" fill="#FF9900"/>
<path d="M265.703 146.781L255.328 144.859C255.953 145.922 257.005 147.578 258.484 149.828C258.943 150.516 259.51 151.391 260.188 152.453C260.865 153.526 261.406 154.411 261.812 155.109C262.552 156.38 263.182 157.38 263.703 158.109C264.359 157.547 264.828 157.026 265.109 156.547C265.38 156.099 265.615 155.411 265.812 154.484C266.01 153.589 266.109 152.536 266.109 151.328C266.109 149.943 265.974 148.427 265.703 146.781ZM264 135.25L269.156 138.422C270.823 143.224 271.656 147.651 271.656 151.703C271.656 153.87 271.385 155.729 270.844 157.281C270.292 158.833 269.703 159.979 269.078 160.719C268.432 161.458 267.771 161.828 267.094 161.828C265.74 161.828 264.068 160.849 262.078 158.891C261.411 158.224 260.76 157.469 260.125 156.625C259.5 155.792 258.885 154.87 258.281 153.859C257.688 152.859 257.083 151.724 256.469 150.453C256.542 151.193 256.578 151.776 256.578 152.203C256.578 153.339 256.411 154.557 256.078 155.859C255.745 157.141 255.37 158.198 254.953 159.031C254.526 159.885 254.078 160.464 253.609 160.766C253.13 161.078 252.495 161.234 251.703 161.234C250.13 161.234 248.604 160.781 247.125 159.875C245.646 158.969 244.521 157.849 243.75 156.516C242.979 155.182 242.594 153.891 242.594 152.641C242.594 151.057 243.031 148.99 243.906 146.438L246.297 145.812L250.938 148.344C249.708 148.667 248.724 149.552 247.984 151C247.245 152.427 246.875 153.823 246.875 155.188C246.875 155.719 246.938 156.453 247.062 157.391C249.042 156.859 250.51 155.688 251.469 153.875C252.406 152.062 252.875 150.167 252.875 148.188C252.875 147.208 252.797 145.927 252.641 144.344C250.578 143.958 248.63 142.615 246.797 140.312C244.974 138.021 244.062 135.932 244.062 134.047C244.062 131.818 246.359 129.599 250.953 127.391C254.318 127.911 256.521 128.359 257.562 128.734C254.833 130.536 252.786 132.396 251.422 134.312C250.057 136.24 249.375 137.932 249.375 139.391C249.375 140.109 249.552 140.693 249.906 141.141C250.25 141.589 250.667 141.885 251.156 142.031C251.646 142.156 253.51 142.438 256.75 142.875L265.562 144.016C265.406 141.849 264.885 138.927 264 135.25Z" fill="#FF9900"/>
<path d="M259.385 163.498L255.701 162.436C255.543 163.328 255.405 164.293 255.286 165.329C255.959 165.469 256.28 165.536 256.25 165.531C257.121 165.685 257.819 165.57 258.341 165.186C258.876 164.794 259.224 164.231 259.385 163.498ZM260.358 158.878L262.686 162.858L261.649 166.943C261.301 168.257 260.801 169.142 260.149 169.598C259.474 170.071 258.797 170.248 258.12 170.129C257.823 170.076 257.445 169.967 256.988 169.802C256.454 169.592 255.649 169.328 254.573 169.011C254.092 167.478 253.855 166.336 253.86 165.586C253.867 164.825 253.93 164.107 254.05 163.43C254.095 163.173 254.177 162.86 254.295 162.489C252.866 163.274 252.068 164.143 251.899 165.097C251.7 166.226 251.947 167.316 252.639 168.369L252.618 168.492C249.598 166.902 248.332 164.722 248.821 161.952C249.074 160.516 249.457 159.51 249.972 158.934C250.486 158.359 251.152 157.968 251.971 157.764C252.771 157.545 254.202 157.618 256.264 157.981L258.882 158.522L260.358 158.878Z" fill="#FF9900"/>
<path d="M254.307 182.543L250.863 180.858C250.553 181.709 250.249 182.635 249.952 183.635C250.591 183.89 250.895 184.012 250.866 184.001C251.698 184.304 252.405 184.312 252.986 184.025C253.581 183.731 254.021 183.237 254.307 182.543ZM256.067 178.163L257.669 182.487L255.938 186.33C255.367 187.563 254.721 188.348 254 188.684C253.253 189.032 252.556 189.089 251.91 188.854C251.626 188.751 251.273 188.578 250.851 188.336C250.362 188.036 249.615 187.636 248.61 187.138C248.404 185.544 248.368 184.378 248.503 183.64C248.642 182.893 248.83 182.196 249.065 181.55C249.154 181.305 249.289 181.011 249.469 180.666C247.926 181.191 246.989 181.908 246.657 182.819C246.265 183.895 246.319 185.012 246.818 186.169L246.775 186.287C244.077 184.196 243.21 181.83 244.171 179.187C244.67 177.817 245.223 176.892 245.829 176.415C246.435 175.937 247.159 175.668 248.001 175.609C248.827 175.533 250.224 175.853 252.191 176.569L254.675 177.556L256.067 178.163Z" fill="#FF9900"/>
<path d="M246.882 195.857L250.724 198.202L247.978 202.083L244.719 200.508C245.208 201.079 245.691 201.617 246.17 202.122C246.57 202.533 246.853 202.895 247.021 203.209C247.191 203.499 247.263 203.884 247.239 204.363C247.225 204.824 247.075 205.303 246.789 205.799C246.466 206.358 245.978 206.901 245.326 207.426L243.865 205.987C243.066 205.225 242.202 204.348 241.272 203.354C242.61 202.683 243.442 202.189 243.769 201.873C243.239 200.604 242.769 199.761 242.36 199.345C241.517 198.93 240.856 198.627 240.378 198.435C239.62 199.08 239.062 199.714 238.702 200.336C237.857 199.343 236.961 198.206 236.016 196.927C237.099 195.051 237.876 193.965 238.346 193.672C238.818 193.355 239.454 193.108 240.253 192.932C241.066 192.752 242.217 193.092 243.706 193.951C244.68 194.514 245.739 195.149 246.882 195.857Z" fill="#FF9900"/>
<path d="M235.151 231.978L231.903 230.476C230.558 229.049 228.903 226.865 226.938 223.924C228.822 224.498 230.613 224.948 232.313 225.272C234.277 224.228 235.898 222.944 237.177 221.42C239.266 218.93 240.163 216.371 239.866 213.743C239.568 211.099 238.43 208.948 236.451 207.287C235.366 206.376 234.184 205.888 232.907 205.823C231.644 205.756 229.989 206.27 227.94 207.366C225.885 208.47 223.646 210.127 221.221 212.335C220.405 213.064 219.597 213.834 218.795 214.643C217.993 215.453 217.137 216.36 216.227 217.363C215.317 218.367 214.483 219.32 213.726 220.222L212.729 215.795C214.758 212.194 216.931 209.013 219.247 206.252C222.307 202.606 225.242 200.526 228.051 200.014C230.866 199.48 233.382 200.143 235.601 202.005C238.058 204.067 239.884 206.802 241.076 210.21C242.283 213.601 242.523 217.067 241.797 220.605C241.072 224.144 239.685 227.134 237.636 229.576C236.953 230.39 236.125 231.19 235.151 231.978Z" fill="#FF9900"/>
<path d="M221.436 230.278C221.263 229.213 220.858 228.302 220.222 227.544C218.488 225.477 216.373 225.103 213.877 226.423C214.347 227.388 214.903 228.254 215.546 229.02C216.577 230.249 217.608 230.886 218.639 230.932C219.656 230.977 220.588 230.759 221.436 230.278ZM217.918 236.514L217.64 234.871C216.888 235.189 216.076 235.211 215.206 234.935C214.321 234.658 213.51 234.08 212.773 233.203C212.063 232.357 211.568 231.434 211.285 230.433C211.018 229.433 210.934 228.613 211.035 227.971C211.13 227.306 211.45 226.351 211.996 225.105C212.096 224.884 212.208 224.539 212.33 224.069C212.414 223.7 212.503 223.401 212.597 223.172C214.16 221.875 215.945 221.125 217.951 220.923C219.938 220.698 221.473 221.232 222.558 222.524C224.326 224.631 224.563 227.872 223.271 232.247C221.838 233.245 220.659 234.133 219.733 234.91C219.047 235.485 218.442 236.02 217.918 236.514Z" fill="#FF9900"/>
<path d="M207.95 238.462L208.561 240.364C206.92 241.709 205.247 243.613 203.542 246.077L202.167 243.695L201.622 242.657C201.543 242.521 201.469 242.402 201.397 242.299C201.216 242.007 200.975 241.599 200.673 241.076C200.537 240.841 200.423 240.654 200.331 240.515L198.861 238.188C198.546 237.684 197.812 236.569 196.658 234.841C198.329 233.444 199.803 232.268 201.081 231.314C201.611 232.523 202.524 234.251 203.821 236.497L205.836 239.863C206.126 239.491 206.488 239.179 206.921 238.929C207.246 238.742 207.589 238.586 207.95 238.462ZM209.703 250.747C209.026 251.138 208.304 251.242 207.537 251.059C206.779 250.871 206.192 250.416 205.775 249.695C205.385 249.018 205.292 248.296 205.498 247.527C205.713 246.754 206.159 246.172 206.835 245.781C207.512 245.39 208.234 245.298 209.003 245.504C209.766 245.701 210.345 246.142 210.741 246.828C211.137 247.513 211.232 248.24 211.026 249.009C210.829 249.772 210.388 250.351 209.703 250.747Z" fill="#FF9900"/>
<path d="M189.717 251.995L188.463 252.933L187.763 251.01C187.549 251.276 187.163 251.738 186.605 252.396C186.416 252.609 186.236 252.829 186.064 253.058L185.089 254.261C184.132 254.465 183.38 254.562 182.833 254.55C182.305 254.532 181.822 254.392 181.383 254.13C180.957 253.875 180.623 253.581 180.38 253.248C180.161 252.951 179.911 252.416 179.629 251.642C179.294 250.722 178.987 249.604 178.707 248.287C178.409 246.888 178.095 245.705 177.765 244.739L179.851 242.018L180.16 241.589C180.747 240.766 181.255 240.165 181.683 239.788C182.102 242.706 182.591 244.933 183.151 246.47C183.824 248.32 184.822 249.797 186.144 250.901C186.159 250.851 186.271 250.611 186.48 250.18L186.637 249.79L187.02 248.969L183.874 240.553C185.451 239.924 187.025 239.085 188.595 238.037C188.78 238.546 188.898 238.885 188.949 239.055C189.15 239.669 189.272 240.035 189.315 240.152L189.438 240.49C189.617 240.891 189.737 241.174 189.797 241.34L191.058 244.806C191.696 246.558 192.297 248.118 192.862 249.487C192.749 249.572 192.618 249.67 192.469 249.779C192.324 249.898 192.162 250.03 191.981 250.173C191.791 250.32 191.594 250.48 191.391 250.654L189.717 251.995Z" fill="#FF9900"/>
</g>
<defs>
<filter id="filter0_di_208_554" x="0.7" y="0.7" width="294.6" height="294.6" filterUnits="userSpaceOnUse" color-interpolation-filters="sRGB">
<feFlood flood-opacity="0" result="BackgroundImageFix"/>
<feColorMatrix in="SourceAlpha" type="matrix" values="0 0 0 0 0 0 0 0 0 0 0 0 0 0 0 0 0 0 127 0" result="hardAlpha"/>
<feOffset dy="4"/>
<feGaussianBlur stdDeviation="3.65"/>
<feComposite in2="hardAlpha" operator="out"/>
<feColorMatrix type="matrix" values="0 0 0 0 0 0 0 0 0 0 0 0 0 0 0 0 0 0 0.25 0"/>
<feBlend mode="normal" in2="BackgroundImageFix" result="effect1_dropShadow_208_554"/>
<feBlend mode="normal" in="SourceGraphic" in2="effect1_dropShadow_208_554" result="shape"/>
<feColorMatrix in="SourceAlpha" type="matrix" values="0 0 0 0 0 0 0 0 0 0 0 0 0 0 0 0 0 0 127 0" result="hardAlpha"/>
<feOffset dy="-2"/>
<feGaussianBlur stdDeviation="2"/>
<feComposite in2="hardAlpha" operator="arithmetic" k2="-1" k3="1"/>
<feColorMatrix type="matrix" values="0 0 0 0 0 0 0 0 0 0 0 0 0 0 0 0 0 0 0.25 0"/>
<feBlend mode="normal" in2="shape" result="effect2_innerShadow_208_554"/>
</filter>
<filter id="filter1_di_208_554" x="11.7" y="11.7" width="272.6" height="272.6" filterUnits="userSpaceOnUse" color-interpolation-filters="sRGB">
<feFlood flood-opacity="0" result="BackgroundImageFix"/>
<feColorMatrix in="SourceAlpha" type="matrix" values="0 0 0 0 0 0 0 0 0 0 0 0 0 0 0 0 0 0 127 0" result="hardAlpha"/>
<feOffset dy="4"/>
<feGaussianBlur stdDeviation="3.65"/>
<feComposite in2="hardAlpha" operator="out"/>
<feColorMatrix type="matrix" values="0 0 0 0 0 0 0 0 0 0 0 0 0 0 0 0 0 0 0.25 0"/>
<feBlend mode="normal" in2="BackgroundImageFix" result="effect1_dropShadow_208_554"/>
<feBlend mode="normal" in="SourceGraphic" in2="effect1_dropShadow_208_554" result="shape"/>
<feColorMatrix in="SourceAlpha" type="matrix" values="0 0 0 0 0 0 0 0 0 0 0 0 0 0 0 0 0 0 127 0" result="hardAlpha"/>
<feOffset dy="-2"/>
<feGaussianBlur stdDeviation="2"/>
<feComposite in2="hardAlpha" operator="arithmetic" k2="-1" k3="1"/>
<feColorMatrix type="matrix" values="0 0 0 0 0 0 0 0 0 0 0 0 0 0 0 0 0 0 0.25 0"/>
<feBlend mode="normal" in2="shape" result="effect2_innerShadow_208_554"/>
</filter>
<filter id="filter2_di_208_554" x="96.5824" y="91.3703" width="128.718" height="128.472" filterUnits="userSpaceOnUse" color-interpolation-filters="sRGB">
<feFlood flood-opacity="0" result="BackgroundImageFix"/>
<feColorMatrix in="SourceAlpha" type="matrix" values="0 0 0 0 0 0 0 0 0 0 0 0 0 0 0 0 0 0 127 0" result="hardAlpha"/>
<feOffset dy="4"/>
<feGaussianBlur stdDeviation="3.65"/>
<feComposite in2="hardAlpha" operator="out"/>
<feColorMatrix type="matrix" values="0 0 0 0 0 0 0 0 0 0 0 0 0 0 0 0 0 0 0.25 0"/>
<feBlend mode="normal" in2="BackgroundImageFix" result="effect1_dropShadow_208_554"/>
<feBlend mode="normal" in="SourceGraphic" in2="effect1_dropShadow_208_554" result="shape"/>
<feColorMatrix in="SourceAlpha" type="matrix" values="0 0 0 0 0 0 0 0 0 0 0 0 0 0 0 0 0 0 127 0" result="hardAlpha"/>
<feOffset dy="-2"/>
<feGaussianBlur stdDeviation="2"/>
<feComposite in2="hardAlpha" operator="arithmetic" k2="-1" k3="1"/>
<feColorMatrix type="matrix" values="0 0 0 0 0 0 0 0 0 0 0 0 0 0 0 0 0 0 0.25 0"/>
<feBlend mode="normal" in2="shape" result="effect2_innerShadow_208_554"/>
</filter>
<filter id="filter3_di_208_554" x="100.141" y="91.3703" width="92.8871" height="124.914" filterUnits="userSpaceOnUse" color-interpolation-filters="sRGB">
<feFlood flood-opacity="0" result="BackgroundImageFix"/>
<feColorMatrix in="SourceAlpha" type="matrix" values="0 0 0 0 0 0 0 0 0 0 0 0 0 0 0 0 0 0 127 0" result="hardAlpha"/>
<feOffset dy="4"/>
<feGaussianBlur stdDeviation="3.65"/>
<feComposite in2="hardAlpha" operator="out"/>
<feColorMatrix type="matrix" values="0 0 0 0 0 0 0 0 0 0 0 0 0 0 0 0 0 0 0.25 0"/>
<feBlend mode="normal" in2="BackgroundImageFix" result="effect1_dropShadow_208_554"/>
<feBlend mode="normal" in="SourceGraphic" in2="effect1_dropShadow_208_554" result="shape"/>
<feColorMatrix in="SourceAlpha" type="matrix" values="0 0 0 0 0 0 0 0 0 0 0 0 0 0 0 0 0 0 127 0" result="hardAlpha"/>
<feOffset dy="-2"/>
<feGaussianBlur stdDeviation="2"/>
<feComposite in2="hardAlpha" operator="arithmetic" k2="-1" k3="1"/>
<feColorMatrix type="matrix" values="0 0 0 0 0 0 0 0 0 0 0 0 0 0 0 0 0 0 0.25 0"/>
<feBlend mode="normal" in2="shape" result="effect2_innerShadow_208_554"/>
</filter>
<filter id="filter4_di_208_554" x="100.141" y="117.466" width="92.8871" height="98.818" filterUnits="userSpaceOnUse" color-interpolation-filters="sRGB">
<feFlood flood-opacity="0" result="BackgroundImageFix"/>
<feColorMatrix in="SourceAlpha" type="matrix" values="0 0 0 0 0 0 0 0 0 0 0 0 0 0 0 0 0 0 127 0" result="hardAlpha"/>
<feOffset dy="4"/>
<feGaussianBlur stdDeviation="3.65"/>
<feComposite in2="hardAlpha" operator="out"/>
<feColorMatrix type="matrix" values="0 0 0 0 0 0 0 0 0 0 0 0 0 0 0 0 0 0 0.25 0"/>
<feBlend mode="normal" in2="BackgroundImageFix" result="effect1_dropShadow_208_554"/>
<feBlend mode="normal" in="SourceGraphic" in2="effect1_dropShadow_208_554" result="shape"/>
<feColorMatrix in="SourceAlpha" type="matrix" values="0 0 0 0 0 0 0 0 0 0 0 0 0 0 0 0 0 0 127 0" result="hardAlpha"/>
<feOffset dy="-2"/>
<feGaussianBlur stdDeviation="2"/>
<feComposite in2="hardAlpha" operator="arithmetic" k2="-1" k3="1"/>
<feColorMatrix type="matrix" values="0 0 0 0 0 0 0 0 0 0 0 0 0 0 0 0 0 0 0.25 0"/>
<feBlend mode="normal" in2="shape" result="effect2_innerShadow_208_554"/>
</filter>
<filter id="filter5_di_208_554" x="96.5824" y="91.3703" width="100.004" height="128.472" filterUnits="userSpaceOnUse" color-interpolation-filters="sRGB">
<feFlood flood-opacity="0" result="BackgroundImageFix"/>
<feColorMatrix in="SourceAlpha" type="matrix" values="0 0 0 0 0 0 0 0 0 0 0 0 0 0 0 0 0 0 127 0" result="hardAlpha"/>
<feOffset dy="4"/>
<feGaussianBlur stdDeviation="3.65"/>
<feComposite in2="hardAlpha" operator="out"/>
<feColorMatrix type="matrix" values="0 0 0 0 0 0 0 0 0 0 0 0 0 0 0 0 0 0 0.25 0"/>
<feBlend mode="normal" in2="BackgroundImageFix" result="effect1_dropShadow_208_554"/>
<feBlend mode="normal" in="SourceGraphic" in2="effect1_dropShadow_208_554" result="shape"/>
<feColorMatrix in="SourceAlpha" type="matrix" values="0 0 0 0 0 0 0 0 0 0 0 0 0 0 0 0 0 0 127 0" result="hardAlpha"/>
<feOffset dy="-2"/>
<feGaussianBlur stdDeviation="2"/>
<feComposite in2="hardAlpha" operator="arithmetic" k2="-1" k3="1"/>
<feColorMatrix type="matrix" values="0 0 0 0 0 0 0 0 0 0 0 0 0 0 0 0 0 0 0.25 0"/>
<feBlend mode="normal" in2="shape" result="effect2_innerShadow_208_554"/>
</filter>
<filter id="filter6_di_208_554" x="88.2792" y="66.4608" width="51.3712" height="47.8127" filterUnits="userSpaceOnUse" color-interpolation-filters="sRGB">
<feFlood flood-opacity="0" result="BackgroundImageFix"/>
<feColorMatrix in="SourceAlpha" type="matrix" values="0 0 0 0 0 0 0 0 0 0 0 0 0 0 0 0 0 0 127 0" result="hardAlpha"/>
<feOffset dy="4"/>
<feGaussianBlur stdDeviation="3.65"/>
<feComposite in2="hardAlpha" operator="out"/>
<feColorMatrix type="matrix" values="0 0 0 0 0 0 0 0 0 0 0 0 0 0 0 0 0 0 0.25 0"/>
<feBlend mode="normal" in2="BackgroundImageFix" result="effect1_dropShadow_208_554"/>
<feBlend mode="normal" in="SourceGraphic" in2="effect1_dropShadow_208_554" result="shape"/>
<feColorMatrix in="SourceAlpha" type="matrix" values="0 0 0 0 0 0 0 0 0 0 0 0 0 0 0 0 0 0 127 0" result="hardAlpha"/>
<feOffset dy="-2"/>
<feGaussianBlur stdDeviation="2"/>
<feComposite in2="hardAlpha" operator="arithmetic" k2="-1" k3="1"/>
<feColorMatrix type="matrix" values="0 0 0 0 0 0 0 0 0 0 0 0 0 0 0 0 0 0 0.25 0"/>
<feBlend mode="normal" in2="shape" result="effect2_innerShadow_208_554"/>
</filter>
<filter id="filter7_di_208_554" x="85.9069" y="81.881" width="52.5574" height="54.9297" filterUnits="userSpaceOnUse" color-interpolation-filters="sRGB">
<feFlood flood-opacity="0" result="BackgroundImageFix"/>
<feColorMatrix in="SourceAlpha" type="matrix" values="0 0 0 0 0 0 0 0 0 0 0 0 0 0 0 0 0 0 127 0" result="hardAlpha"/>
<feOffset dy="4"/>
<feGaussianBlur stdDeviation="3.65"/>
<feComposite in2="hardAlpha" operator="out"/>
<feColorMatrix type="matrix" values="0 0 0 0 0 0 0 0 0 0 0 0 0 0 0 0 0 0 0.25 0"/>
<feBlend mode="normal" in2="BackgroundImageFix" result="effect1_dropShadow_208_554"/>
<feBlend mode="normal" in="SourceGraphic" in2="effect1_dropShadow_208_554" result="shape"/>
<feColorMatrix in="SourceAlpha" type="matrix" values="0 0 0 0 0 0 0 0 0 0 0 0 0 0 0 0 0 0 127 0" result="hardAlpha"/>
<feOffset dy="-2"/>
<feGaussianBlur stdDeviation="2"/>
<feComposite in2="hardAlpha" operator="arithmetic" k2="-1" k3="1"/>
<feColorMatrix type="matrix" values="0 0 0 0 0 0 0 0 0 0 0 0 0 0 0 0 0 0 0.25 0"/>
<feBlend mode="normal" in2="shape" result="effect2_innerShadow_208_554"/>
</filter>
<filter id="filter8_di_208_554" x="112.003" y="58.1576" width="46.6266" height="52.5574" filterUnits="userSpaceOnUse" color-interpolation-filters="sRGB">
<feFlood flood-opacity="0" result="BackgroundImageFix"/>
<feColorMatrix in="SourceAlpha" type="matrix" values="0 0 0 0 0 0 0 0 0 0 0 0 0 0 0 0 0 0 127 0" result="hardAlpha"/>
<feOffset dy="4"/>
<feGaussianBlur stdDeviation="3.65"/>
<feComposite in2="hardAlpha" operator="out"/>
<feColorMatrix type="matrix" values="0 0 0 0 0 0 0 0 0 0 0 0 0 0 0 0 0 0 0.25 0"/>
<feBlend mode="normal" in2="BackgroundImageFix" result="effect1_dropShadow_208_554"/>
<feBlend mode="normal" in="SourceGraphic" in2="effect1_dropShadow_208_554" result="shape"/>
<feColorMatrix in="SourceAlpha" type="matrix" values="0 0 0 0 0 0 0 0 0 0 0 0 0 0 0 0 0 0 127 0" result="hardAlpha"/>
<feOffset dy="-2"/>
<feGaussianBlur stdDeviation="2"/>
<feComposite in2="hardAlpha" operator="arithmetic" k2="-1" k3="1"/>
<feColorMatrix type="matrix" values="0 0 0 0 0 0 0 0 0 0 0 0 0 0 0 0 0 0 0.25 0"/>
<feBlend mode="normal" in2="shape" result="effect2_innerShadow_208_554"/>
</filter>
<filter id="filter9_di_208_554" x="117.933" y="67.6469" width="69.1637" height="53.7436" filterUnits="userSpaceOnUse" color-interpolation-filters="sRGB">
<feFlood flood-opacity="0" result="BackgroundImageFix"/>
<feColorMatrix in="SourceAlpha" type="matrix" values="0 0 0 0 0 0 0 0 0 0 0 0 0 0 0 0 0 0 127 0" result="hardAlpha"/>
<feOffset dy="4"/>
<feGaussianBlur stdDeviation="3.65"/>
<feComposite in2="hardAlpha" operator="out"/>
<feColorMatrix type="matrix" values="0 0 0 0 0 0 0 0 0 0 0 0 0 0 0 0 0 0 0.25 0"/>
<feBlend mode="normal" in2="BackgroundImageFix" result="effect1_dropShadow_208_554"/>
<feBlend mode="normal" in="SourceGraphic" in2="effect1_dropShadow_208_554" result="shape"/>
<feColorMatrix in="SourceAlpha" type="matrix" values="0 0 0 0 0 0 0 0 0 0 0 0 0 0 0 0 0 0 127 0" result="hardAlpha"/>
<feOffset dy="-2"/>
<feGaussianBlur stdDeviation="2"/>
<feComposite in2="hardAlpha" operator="arithmetic" k2="-1" k3="1"/>
<feColorMatrix type="matrix" values="0 0 0 0 0 0 0 0 0 0 0 0 0 0 0 0 0 0 0.25 0"/>
<feBlend mode="normal" in2="shape" result="effect2_innerShadow_208_554"/>
</filter>
<filter id="filter10_di_208_554" x="134.54" y="80.6948" width="62.0467" height="44.2542" filterUnits="userSpaceOnUse" color-interpolation-filters="sRGB">
<feFlood flood-opacity="0" result="BackgroundImageFix"/>
<feColorMatrix in="SourceAlpha" type="matrix" values="0 0 0 0 0 0 0 0 0 0 0 0 0 0 0 0 0 0 127 0" result="hardAlpha"/>
<feOffset dy="4"/>
<feGaussianBlur stdDeviation="3.65"/>
<feComposite in2="hardAlpha" operator="out"/>
<feColorMatrix type="matrix" values="0 0 0 0 0 0 0 0 0 0 0 0 0 0 0 0 0 0 0.25 0"/>
<feBlend mode="normal" in2="BackgroundImageFix" result="effect1_dropShadow_208_554"/>
<feBlend mode="normal" in="SourceGraphic" in2="effect1_dropShadow_208_554" result="shape"/>
<feColorMatrix in="SourceAlpha" type="matrix" values="0 0 0 0 0 0 0 0 0 0 0 0 0 0 0 0 0 0 127 0" result="hardAlpha"/>
<feOffset dy="-2"/>
<feGaussianBlur stdDeviation="2"/>
<feComposite in2="hardAlpha" operator="arithmetic" k2="-1" k3="1"/>
<feColorMatrix type="matrix" values="0 0 0 0 0 0 0 0 0 0 0 0 0 0 0 0 0 0 0.25 0"/>
<feBlend mode="normal" in2="shape" result="effect2_innerShadow_208_554"/>
</filter>
<filter id="filter11_di_208_554" x="107.258" y="113.908" width="78.6531" height="92.8871" filterUnits="userSpaceOnUse" color-interpolation-filters="sRGB">
<feFlood flood-opacity="0" result="BackgroundImageFix"/>
<feColorMatrix in="SourceAlpha" type="matrix" values="0 0 0 0 0 0 0 0 0 0 0 0 0 0 0 0 0 0 127 0" result="hardAlpha"/>
<feOffset dy="4"/>
<feGaussianBlur stdDeviation="3.65"/>
<feComposite in2="hardAlpha" operator="out"/>
<feColorMatrix type="matrix" values="0 0 0 0 0 0 0 0 0 0 0 0 0 0 0 0 0 0 0.25 0"/>
<feBlend mode="normal" in2="BackgroundImageFix" result="effect1_dropShadow_208_554"/>
<feBlend mode="normal" in="SourceGraphic" in2="effect1_dropShadow_208_554" result="shape"/>
<feColorMatrix in="SourceAlpha" type="matrix" values="0 0 0 0 0 0 0 0 0 0 0 0 0 0 0 0 0 0 127 0" result="hardAlpha"/>
<feOffset dy="-2"/>
<feGaussianBlur stdDeviation="2"/>
<feComposite in2="hardAlpha" operator="arithmetic" k2="-1" k3="1"/>
<feColorMatrix type="matrix" values="0 0 0 0 0 0 0 0 0 0 0 0 0 0 0 0 0 0 0.25 0"/>
<feBlend mode="normal" in2="shape" result="effect2_innerShadow_208_554"/>
</filter>
<filter id="filter12_i_208_554" x="24.3438" y="18.3438" width="247.312" height="249.312" filterUnits="userSpaceOnUse" color-interpolation-filters="sRGB">
<feFlood flood-opacity="0" result="BackgroundImageFix"/>
<feBlend mode="normal" in="SourceGraphic" in2="BackgroundImageFix" result="shape"/>
<feColorMatrix in="SourceAlpha" type="matrix" values="0 0 0 0 0 0 0 0 0 0 0 0 0 0 0 0 0 0 127 0" result="hardAlpha"/>
<feOffset dy="-2"/>
<feGaussianBlur stdDeviation="2"/>
<feComposite in2="hardAlpha" operator="arithmetic" k2="-1" k3="1"/>
<feColorMatrix type="matrix" values="0 0 0 0 0.465833 0 0 0 0 0.341813 0 0 0 0 0.0229034 0 0 0 0.32 0"/>
<feBlend mode="normal" in2="shape" result="effect1_innerShadow_208_554"/>
</filter>
</defs>
</svg>
