<svg width="17" height="17" viewBox="0 0 17 17" fill="none" xmlns="http://www.w3.org/2000/svg">
<path fill-rule="evenodd" clip-rule="evenodd" d="M1.46305 12.7906C0.685866 13.5755 0.692116 14.8418 1.47701 15.619C2.2619 16.3962 3.52822 16.3899 4.3054 15.605L8.52705 11.3415L12.7906 15.5632C13.5755 16.3403 14.8418 16.3341 15.619 15.5492C16.3962 14.7643 16.3899 13.498 15.605 12.7208L11.3415 8.49915L15.5631 4.23562C16.3403 3.45072 16.3341 2.18441 15.5492 1.40722C14.7643 0.630039 13.498 0.636288 12.7208 1.42118L8.49913 5.68472L4.23561 1.46307C3.45072 0.685888 2.1844 0.692138 1.40722 1.47703C0.630032 2.26193 0.636281 3.52824 1.42118 4.30542L5.68469 8.52707L1.46305 12.7906Z" fill="white"/>
</svg>
