<svg width="142" height="142" viewBox="0 0 142 142" fill="none" xmlns="http://www.w3.org/2000/svg">
<g filter="url(#filter0_di_213_573)">
<rect x="8" y="4" width="126" height="126" rx="26" fill="url(#paint0_linear_213_573)"/>
</g>
<g filter="url(#filter1_d_213_573)">
<path d="M71.5151 77C57.5151 77 45.5151 84.5 46.0151 95.5C47.0151 103.5 53.0151 97.5 56.5151 97.5C59.5151 97.5 62.5151 100.5 65.5151 100.5C69.5462 100.5 71.0151 97.5 73.5151 97.5C78.0151 97.5 77.5151 100.5 82.0151 100.5C84.5151 100.5 85.5151 97.5 89.5151 97.5C92.6774 97.5 98.0151 103.5 98.0151 95.5C98.0151 87.5 85.5151 77 71.5151 77Z" fill="url(#paint1_linear_213_573)"/>
</g>
<ellipse cx="51.5" cy="48.5" rx="8.5" ry="11.5" fill="black"/>
<ellipse cx="90.5" cy="49.5" rx="8.5" ry="11.5" fill="black"/>
<defs>
<filter id="filter0_di_213_573" x="0.7" y="0.7" width="140.6" height="140.6" filterUnits="userSpaceOnUse" color-interpolation-filters="sRGB">
<feFlood flood-opacity="0" result="BackgroundImageFix"/>
<feColorMatrix in="SourceAlpha" type="matrix" values="0 0 0 0 0 0 0 0 0 0 0 0 0 0 0 0 0 0 127 0" result="hardAlpha"/>
<feOffset dy="4"/>
<feGaussianBlur stdDeviation="3.65"/>
<feComposite in2="hardAlpha" operator="out"/>
<feColorMatrix type="matrix" values="0 0 0 0 0 0 0 0 0 0 0 0 0 0 0 0 0 0 0.25 0"/>
<feBlend mode="normal" in2="BackgroundImageFix" result="effect1_dropShadow_213_573"/>
<feBlend mode="normal" in="SourceGraphic" in2="effect1_dropShadow_213_573" result="shape"/>
<feColorMatrix in="SourceAlpha" type="matrix" values="0 0 0 0 0 0 0 0 0 0 0 0 0 0 0 0 0 0 127 0" result="hardAlpha"/>
<feOffset dy="-2"/>
<feGaussianBlur stdDeviation="2"/>
<feComposite in2="hardAlpha" operator="arithmetic" k2="-1" k3="1"/>
<feColorMatrix type="matrix" values="0 0 0 0 0 0 0 0 0 0 0 0 0 0 0 0 0 0 0.25 0"/>
<feBlend mode="normal" in2="shape" result="effect2_innerShadow_213_573"/>
</filter>
<filter id="filter1_d_213_573" x="29.6" y="64.6" width="84.8151" height="56.3" filterUnits="userSpaceOnUse" color-interpolation-filters="sRGB">
<feFlood flood-opacity="0" result="BackgroundImageFix"/>
<feColorMatrix in="SourceAlpha" type="matrix" values="0 0 0 0 0 0 0 0 0 0 0 0 0 0 0 0 0 0 127 0" result="hardAlpha"/>
<feOffset dy="4"/>
<feGaussianBlur stdDeviation="8.2"/>
<feComposite in2="hardAlpha" operator="out"/>
<feColorMatrix type="matrix" values="0 0 0 0 0 0 0 0 0 0 0 0 0 0 0 0 0 0 0.25 0"/>
<feBlend mode="normal" in2="BackgroundImageFix" result="effect1_dropShadow_213_573"/>
<feBlend mode="normal" in="SourceGraphic" in2="effect1_dropShadow_213_573" result="shape"/>
</filter>
<linearGradient id="paint0_linear_213_573" x1="74.755" y1="4" x2="70.1117" y2="129.952" gradientUnits="userSpaceOnUse">
<stop stop-color="#FCE3D5"/>
<stop offset="1" stop-color="#FFBD98"/>
</linearGradient>
<linearGradient id="paint1_linear_213_573" x1="72.0075" y1="77" x2="72.0075" y2="100.5" gradientUnits="userSpaceOnUse">
<stop stop-color="#D9D9D9"/>
<stop offset="1" stop-color="white"/>
</linearGradient>
</defs>
</svg>
