<svg width="107" height="38" viewBox="0 0 107 38" fill="none" xmlns="http://www.w3.org/2000/svg">
<path d="M0 14.5C0 11.9223 1.90474 9.74107 4.45899 9.39385L14.7125 8H92.9562L102.545 9.36555C105.101 9.72955 107 11.9182 107 14.5V14.5C107 17.0818 105.101 19.2704 102.545 19.6345L92.9562 21H14.7125L4.45899 19.6062C1.90475 19.2589 0 17.0777 0 14.5V14.5Z" fill="url(#paint0_linear_146_34)"/>
<rect x="41" y="3" width="24" height="24" rx="6" fill="url(#paint1_linear_146_34)"/>
<g filter="url(#filter0_di_146_34)">
<rect x="42" y="4" width="22" height="22" rx="11" fill="white"/>
</g>
<rect x="59" y="13" width="4" height="4" rx="1" fill="#96D4D8" fill-opacity="0.9"/>
<path d="M44.5 7C46.0254 7.66734 49.0868 8.39843 51 9.59694M60 24C56.5 22 53.5 20.5 53.5 14.5C53.5 11.9321 52.4315 10.4937 51 9.59694M44 22C45 19.5 47 17 46 14.5C45.0531 12.1328 47.5 10.6939 51 9.59694M61.5 7C60.3 9 54.8333 21.1667 52.5 26.5" stroke="#DA9039"/>
<path fill-rule="evenodd" clip-rule="evenodd" d="M47 3C43.6863 3 41 5.68628 41 9V21C41 24.3137 43.6863 27 47 27H59C62.3137 27 65 24.3137 65 21V9C65 5.68628 62.3137 3 59 3H47ZM53 4C46.9249 4 42 8.92487 42 15C42 21.0751 46.9249 26 53 26C59.0751 26 64 21.0751 64 15C64 8.92487 59.0751 4 53 4Z" fill="url(#paint2_linear_146_34)"/>
<defs>
<filter id="filter0_di_146_34" x="34.7" y="0.7" width="36.6" height="36.6" filterUnits="userSpaceOnUse" color-interpolation-filters="sRGB">
<feFlood flood-opacity="0" result="BackgroundImageFix"/>
<feColorMatrix in="SourceAlpha" type="matrix" values="0 0 0 0 0 0 0 0 0 0 0 0 0 0 0 0 0 0 127 0" result="hardAlpha"/>
<feOffset dy="4"/>
<feGaussianBlur stdDeviation="3.65"/>
<feComposite in2="hardAlpha" operator="out"/>
<feColorMatrix type="matrix" values="0 0 0 0 0 0 0 0 0 0 0 0 0 0 0 0 0 0 0.25 0"/>
<feBlend mode="normal" in2="BackgroundImageFix" result="effect1_dropShadow_146_34"/>
<feBlend mode="normal" in="SourceGraphic" in2="effect1_dropShadow_146_34" result="shape"/>
<feColorMatrix in="SourceAlpha" type="matrix" values="0 0 0 0 0 0 0 0 0 0 0 0 0 0 0 0 0 0 127 0" result="hardAlpha"/>
<feOffset dy="-2"/>
<feGaussianBlur stdDeviation="2"/>
<feComposite in2="hardAlpha" operator="arithmetic" k2="-1" k3="1"/>
<feColorMatrix type="matrix" values="0 0 0 0 0 0 0 0 0 0 0 0 0 0 0 0 0 0 0.25 0"/>
<feBlend mode="normal" in2="shape" result="effect2_innerShadow_146_34"/>
</filter>
<linearGradient id="paint0_linear_146_34" x1="0" y1="14.5" x2="107" y2="14.5" gradientUnits="userSpaceOnUse">
<stop stop-color="#C5834D"/>
<stop offset="0.2" stop-color="#CA5E30"/>
<stop offset="0.48" stop-color="#8A4B30"/>
<stop offset="0.76" stop-color="#B45A33"/>
<stop offset="1" stop-color="#D69355"/>
</linearGradient>
<linearGradient id="paint1_linear_146_34" x1="53" y1="3" x2="53" y2="27" gradientUnits="userSpaceOnUse">
<stop stop-color="#C0C0C0"/>
<stop offset="0.501" stop-color="#737373"/>
<stop offset="1" stop-color="#939393"/>
</linearGradient>
<linearGradient id="paint2_linear_146_34" x1="53" y1="3" x2="53" y2="27" gradientUnits="userSpaceOnUse">
<stop stop-color="#C0C0C0"/>
<stop offset="0.501" stop-color="#737373"/>
<stop offset="1" stop-color="#939393"/>
</linearGradient>
</defs>
</svg>
